# xmcd
#
# Track frame offsets: 
#        150
#        12613
#        25855
#        40286
#        61363
#        73955
#        88305
#        99862
#        110261
#        122766
#        141802
#        164419
#        179716
#
# Disc length: 2602 seconds
#
# Revision: 0
# Processed by: cddbd v1.5PL3 Copyright (c) Steve Scherf et al.
# Submitted via: ExactAudioCopy v0.95a5
#
DISCID=bb0a280d
DTITLE=The Long  and Pardue Band - LIVE
DYEAR=1900
DGENRE=Bluegrass
TTITLE0=Hard Act To Follow
TTITLE1=Billy Watson
TTITLE2=On And On
TTITLE3=Grampa's Garden
TTITLE4=I Heard You Call His Name
TTITLE5=A Smooth Road
TTITLE6=Womans Point Of View
TTITLE7=Arkansas
TTITLE8=I Ain't Broke
TTITLE9=Blue Moon Of Kentucky
TTITLE10=Smoke That Cigarette
TTITLE11=Take This Hammer
TTITLE12=The Only Hell My Mama Ever Raised
EXTD=
EXTT0=
EXTT1=
EXTT2=
EXTT3=
EXTT4=
EXTT5=
EXTT6=
EXTT7=
EXTT8=
EXTT9=
EXTT10=
EXTT11=
EXTT12=
PLAYORDER=
